:version 1.10
:name ASF
:units
  mass 1
  length 1
  angle deg
:documentation
  ASF file generated by Kaydara
:root
  axis xyz
  order  tx ty tz rx ry rz
  position 0 0 0
  orientation 0 0 0
:bonedata
  begin
    id 1
    name RightUpLegDummy
    direction -0.718183 -0.695806 0.00816078
    length 4.904
    axis 0 0 0 xyz
  end
  begin
    id 2
    name RightUpLeg
    direction 3.53989e-006 -0.995788 0.0916897
    length 17.4976
    axis -3.49089 -0.000906621 0.000287158 xyz
    dof rx ry rz
  end
  begin
    id 3
    name RightLeg
    direction 0.00371093 -0.995096 -0.0988418
    length 16.5821
    axis 3.68512 0.0193738 -0.131023 xyz
    dof rx ry rz
  end
  begin
    id 4
    name RightFoot
    direction 0.000791514 -0.46099 0.887405
    length 3.77069
    axis 4.84075e-005 -0.120479 -0.188788 xyz
    dof rx ry rz
  end
  begin
    id 5
    name RightToes
    direction 0.00124746 -0.014064 0.9999
    length 3.85082
    axis 0.00048216 0.542163 -0.142577 xyz
    dof rx ry rz
  end
  begin
    id 6
    name SpineDummy
    direction 8.36599e-015 1 5.97571e-016
    length 4.6813
    axis 0 0 0 xyz
  end
  begin
    id 7
    name Spine
    direction -4.63632e-008 0.999988 0.00495137
    length 10.1015
    axis -0.00138897 0.000121419 3.25764e-006 xyz
    dof rx ry rz
  end
  begin
    id 8
    name Spine1
    direction 0 0 0
    length 0
    axis -0.00138896 0.000121452 2.39764e-006 xyz
    dof rx ry rz
  end
  begin
    id 9
    name HEadDummy
    direction -3.91456e-008 0.999999 0.00127422
    length 3.43865
    axis -0.00138896 0.000121452 2.39764e-006 xyz
  end
  begin
    id 10
    name HEad
    direction -0.0222688 0.980941 0.193023
    length 5.12695
    axis -0.00138895 0.000121452 2.39764e-006 xyz
    dof rx ry rz
  end
  begin
    id 11
    name LeftShoulder1Dummy
    direction 0.998891 -0.0402508 -0.0244456
    length 3.5433
    axis -0.00138896 0.000121452 2.39764e-006 xyz
  end
  begin
    id 12
    name LeftShoulder1
    direction 0.99951 -0.000327743 0.0313091
    length 4.05031
    axis -0.00138896 0.000121452 2.39764e-006 xyz
    dof rx ry rz
  end
  begin
    id 13
    name LeftArm
    direction 0.998561 -0.00100054 -0.0536182
    length 10.3537
    axis -23.1894 0.134784 0.96751 xyz
    dof rx ry rz
  end
  begin
    id 14
    name LeftForeArm
    direction 0.998903 0.00866434 0.046012
    length 8.70632
    axis -9.91835 -0.06569 -0.177792 xyz
    dof rx ry rz
  end
  begin
    id 15
    name LeftHand
    direction 0.992938 -0.0411636 0.11126
    length 5.32135
    axis -0.00960227 -0.00340091 0.185174 xyz
    dof rx ry rz
  end
  begin
    id 16
    name RightShoulderDummy
    direction -0.998891 -0.0402509 -0.0244414
    length 3.5433
    axis -0.00138896 0.000121452 2.39764e-006 xyz
  end
  begin
    id 17
    name RightShoulder
    direction -0.99951 -0.000327827 0.0313133
    length 4.05031
    axis 0.215806 0.000203644 -0.00680151 xyz
    dof rx ry rz
  end
  begin
    id 18
    name RightArm
    direction -0.998573 -0.000999583 -0.053403
    length 10.3947
    axis -23.2009 -0.134239 -0.9641 xyz
    dof rx ry rz
  end
  begin
    id 19
    name RightForeArm
    direction -0.998898 0.00868026 0.0461306
    length 8.68355
    axis -9.92322 0.0658061 0.178869 xyz
    dof rx ry rz
  end
  begin
    id 20
    name RightHand
    direction -0.992843 -0.0414603 0.112003
    length 5.28593
    axis -0.00960634 0.00330671 -0.185226 xyz
    dof rx ry rz
  end
  begin
    id 21
    name LeftUpLegDummy
    direction 0.718183 -0.695806 0.00816078
    length 4.904
    axis 0 0 0 xyz
  end
  begin
    id 22
    name LeftUpLeg
    direction -6.8115e-006 -0.995793 0.0916336
    length 17.4976
    axis -3.48766 0.00143441 -0.000523914 xyz
    dof rx ry rz
  end
  begin
    id 23
    name LeftLeg
    direction -0.00601357 -0.995091 -0.0987824
    length 16.5821
    axis 3.68177 -0.00654038 -0.00028478 xyz
    dof rx ry rz
  end
  begin
    id 24
    name LeftFoot
    direction -0.00417578 -0.460984 0.887399
    length 3.77069
    axis 1.87232e-006 4.66002e-005 -8.1837e-006 xyz
    dof rx ry rz
  end
  begin
    id 25
    name LeftToes
    direction 0.00818058 -0.00485161 0.999955
    length 3.85048
    axis 1.06246e-005 4.65855e-005 -8.18502e-006 xyz
    dof rx ry rz
  end
:hierarchy
  begin
    root RightUpLegDummy SpineDummy LeftUpLegDummy
    RightUpLegDummy RightUpLeg
    RightUpLeg RightLeg
    RightLeg RightFoot
    RightFoot RightToes
    SpineDummy Spine
    Spine Spine1
    Spine1 HEadDummy LeftShoulder1Dummy RightShoulderDummy
    HEadDummy HEad
    LeftShoulder1Dummy LeftShoulder1
    LeftShoulder1 LeftArm
    LeftArm LeftForeArm
    LeftForeArm LeftHand
    RightShoulderDummy RightShoulder
    RightShoulder RightArm
    RightArm RightForeArm
    RightForeArm RightHand
    LeftUpLegDummy LeftUpLeg
    LeftUpLeg LeftLeg
    LeftLeg LeftFoot
    LeftFoot LeftToes
  end

:SAMPLES-PER-SECOND 30
:FULLY-SPECIFIED
:DEGREES
1
root  -4.03559 41.0212 0.588238 -176.773 -89.1519 -177.58
RightUpLeg  -0.927487 -0.741482 -1.29844
RightLeg  -5.33331 -18.1408 2.31369
RightFoot  1.86054 -0.239856 2.25121
RightToes  -3.13588e-008 1.75238e-005 3.56266e-009
Spine  2.76481 -1.06974 -6.41311
Spine1  -7.50952 -2.05543 9.52503
HEad  -12.2591 1.8314 1.63734
LeftShoulder1  1.19081 -0.648457 -22.3478
LeftArm  -44.4633 -12.6853 -51.9281
LeftForeArm  37.3837 -68.4031 -25.1421
LeftHand  -0.469876 -1.28674 8.32479
RightShoulder  1.56878 2.07281 21.9149
RightArm  -10.5674 -11.3764 53.6943
RightForeArm  48.4913 76.1922 45.8026
RightHand  -0.184203 6.62093 -2.12274
LeftUpLeg  0.262824 0.42418 2.77252
LeftLeg  -6.76729 17.0732 -2.02562
LeftFoot  2.35273 0.355462 -3.07902
LeftToes  4.76812e-008 1.47286e-008 1.3089e-009
2
root  -4.00389 41.0201 0.569579 -175.5 -89.149 -178.905
RightUpLeg  -1.00269 -0.707306 -1.27648
RightLeg  -5.17904 -18.1008 2.21718
RightFoot  1.87751 -0.238198 2.19416
RightToes  -3.13588e-008 1.75238e-005 3.56266e-009
Spine  2.90227 -1.11694 -6.64837
Spine1  -7.84481 -2.1011 9.75256
HEad  -12.2396 1.75792 1.20754
LeftShoulder1  1.21329 -0.777388 -21.9863
LeftArm  -45.1441 -12.7476 -51.7243
LeftForeArm  36.9695 -67.9583 -24.516
LeftHand  -0.479829 -1.18245 8.6243
RightShoulder  1.6193 2.1995 22.1942
RightArm  -10.7807 -11.6448 53.4936
RightForeArm  47.808 76.0816 45.3964
RightHand  -0.183041 6.7361 -2.09871
LeftUpLeg  0.19488 0.407156 2.77096
LeftLeg  -6.61083 17.1195 -1.96589
LeftFoot  2.28012 0.374786 -3.25662
LeftToes  4.76812e-008 1.47286e-008 1.3089e-009
3
root  -3.98211 41.0183 0.585818 -174.823 -88.4313 -179.675
RightUpLeg  -1.22053 -0.667058 -1.31065
RightLeg  -4.73287 -17.2988 1.95892
RightFoot  1.84261 -0.246103 2.27901
RightToes  -3.13588e-008 1.75238e-005 3.56266e-009
Spine  2.63115 -0.998274 -6.45956
Spine1  -7.42203 -1.99216 9.61097
HEad  -12.5484 1.52932 0.610011
LeftShoulder1  1.18753 -0.696484 -21.9136
LeftArm  -45.5603 -13.0399 -51.0161
LeftForeArm  37.2284 -67.5363 -23.8528
LeftHand  -0.470001 -1.07951 8.57611
RightShoulder  1.63067 2.23465 22.2165
RightArm  -10.8748 -11.6165 53.5843
RightForeArm  48.1537 76.1873 45.9034
RightHand  -0.160532 6.86221 -1.87001
LeftUpLeg  0.378153 0.401638 2.69755
LeftLeg  -6.65495 17.8796 -2.04328
LeftFoot  2.14318 0.369312 -3.23801
LeftToes  4.76812e-008 1.47286e-008 1.3089e-009
4
root  -3.94691 41.0145 0.622803 -176.867 -87.1711 -177.77
RightUpLeg  -1.51695 -0.521075 -1.28174
RightLeg  -4.19065 -16.0688 1.60953
RightFoot  1.81874 -0.250879 2.28022
RightToes  -3.13588e-008 1.75238e-005 3.56266e-009
Spine  2.48356 -0.76535 -5.7702
Spine1  -7.15402 -1.69714 8.81523
HEad  -12.7534 1.72371 0.415274
LeftShoulder1  1.17868 -0.695671 -21.6948
LeftArm  -45.4451 -13.2857 -50.6538
LeftForeArm  37.029 -67.0477 -23.1929
LeftHand  -0.48929 -1.20495 8.7642
RightShoulder  1.72832 2.51836 22.5161
RightArm  -11.4506 -11.3604 53.4146
RightForeArm  48.1092 76.1007 45.3939
RightHand  -0.199678 6.80637 -2.24775
LeftUpLeg  0.514322 0.507696 2.68897
LeftLeg  -6.38563 19.0292 -2.11892
LeftFoot  1.86721 0.36122 -3.20911
LeftToes  4.76812e-008 1.47286e-008 1.3089e-009
5
root  -3.91793 41.0149 0.673136 -176.464 -85.63 -178.477
RightUpLeg  -1.63092 -0.424138 -1.32547
RightLeg  -3.72157 -14.5978 1.24438
RightFoot  1.84775 -0.27353 2.47379
RightToes  -3.13588e-008 1.75238e-005 3.56266e-009
Spine  2.58625 -0.498105 -5.57393
Spine1  -7.17745 -1.42089 8.66175
HEad  -12.4281 2.19207 0.282407
LeftShoulder1  1.2944 -1.08302 -21.8647
LeftArm  -44.8841 -13.6763 -50.5077
LeftForeArm  37.1176 -66.7209 -22.7416
LeftHand  -0.480829 -1.07294 8.77992
RightShoulder  1.7915 2.72466 22.5814
RightArm  -12.1722 -11.2764 52.9734
RightForeArm  47.7264 76.0309 45.1226
RightHand  -0.17941 7.01555 -2.03026
LeftUpLeg  1.01491 0.544635 2.55822
LeftLeg  -6.42368 20.5171 -2.27825
LeftFoot  1.74665 0.360048 -3.20619
LeftToes  4.76812e-008 1.47286e-008 1.3089e-009
6
root  -3.87578 41.0207 0.741328 -177.246 -84.5391 -177.84
RightUpLeg  -1.74139 -0.340871 -1.33674
RightLeg  -3.59676 -13.5789 1.08533
RightFoot  2.02668 -0.292491 2.61295
RightToes  -3.13588e-008 1.75238e-005 3.56266e-009
Spine  2.61463 -0.775404 -5.27759
Spine1  -7.24111 -1.66674 8.36119
HEad  -11.9447 3.29281 0.685492
LeftShoulder1  1.40595 -1.46223 -21.9632
LeftArm  -43.281 -14.4342 -50.5477
LeftForeArm  37.5131 -66.3542 -22.207
LeftHand  -0.493656 -1.14616 8.91489
RightShoulder  1.7281 2.51103 22.5466
RightArm  -12.4733 -10.9283 52.6488
RightForeArm  46.6658 75.8154 44.302
RightHand  -0.170542 6.96029 -1.95711
LeftUpLeg  1.31677 0.590156 2.50135
LeftLeg  -6.60186 21.5933 -2.46522
LeftFoot  1.72269 0.365933 -3.28539
LeftToes  4.76812e-008 1.47286e-008 1.3089e-009
7
root  -3.84296 41.0191 0.82545 -177.14 -83.1821 -178.128
RightUpLeg  -1.90229 -0.263351 -1.41335
RightLeg  -3.32902 -12.2797 0.817015
RightFoot  2.17142 -0.305406 2.7017
RightToes  -3.13588e-008 1.75238e-005 3.56266e-009
Spine  2.22524 -1.36394 -5.37532
Spine1  -6.35737 -2.33063 8.55616
HEad  -11.8444 5.03536 0.744244
LeftShoulder1  1.43566 -1.51139 -22.2998
LeftArm  -40.9237 -15.7699 -50.7525
LeftForeArm  37.6544 -66.0479 -21.8053
LeftHand  -0.511935 -1.23198 9.12759
RightShoulder  1.6624 2.33069 22.2987
RightArm  -13.1529 -9.69931 52.5976
RightForeArm  45.4924 75.5117 43.1047
RightHand  -0.23336 6.67123 -2.58843
LeftUpLeg  1.785 0.537704 2.30692
LeftLeg  -6.96435 23.0055 -2.71317
LeftFoot  1.66375 0.369127 -3.328
LeftToes  4.76812e-008 1.47286e-008 1.3089e-009
8
root  -3.80367 41.0159 0.927308 -177.284 -81.752 -178.152
RightUpLeg  -2.12332 -0.1115 -1.46914
RightLeg  -3.03344 -10.96 0.508241
RightFoot  2.26472 -0.338456 2.9657
RightToes  -3.13588e-008 1.75238e-005 3.56266e-009
Spine  2.39648 -2.17147 -5.83444
Spine1  -6.51024 -3.21228 9.22707
HEad  -11.5642 6.12085 0.329149
LeftShoulder1  1.50697 -1.74947 -22.3568
LeftArm  -38.5071 -17.0781 -51.783
LeftForeArm  37.7924 -65.4144 -21.0323
LeftHand  -0.516509 -1.22759 9.21349
RightShoulder  1.71481 2.52021 22.2663
RightArm  -13.8772 -10.4088 51.3235
RightForeArm  47.3207 76.1515 46.0045
RightHand  -0.226648 6.91262 -2.4871
LeftUpLeg  2.06922 0.685204 2.20868
LeftLeg  -6.97092 24.2968 -3.01925
LeftFoot  1.37089 0.376029 -3.44995
LeftToes  4.76812e-008 1.47286e-008 1.3089e-009
9
root  -3.75986 41.0051 1.0495 -177.461 -79.9976 -178.094
RightUpLeg  -2.60723 0.0632364 -1.53356
RightLeg  -2.44337 -9.37155 0.165702
RightFoot  2.26636 -0.382199 3.33137
RightToes  -3.13588e-008 1.75238e-005 3.56266e-009
Spine  2.44915 -3.13231 -6.66264
Spine1  -6.31474 -4.33973 10.4783
HEad  -11.2692 7.51878 0.0842592
LeftShoulder1  1.66997 -2.20621 -22.961
LeftArm  -35.9134 -18.7443 -52.4075
LeftForeArm  37.9821 -64.5915 -20.0875
LeftHand  -0.517666 -1.40141 9.01095
RightShoulder  1.66994 2.42038 21.9727
RightArm  -15.3966 -9.23899 50.8408
RightForeArm  45.8731 75.7729 44.3333
RightHand  -0.20724 6.75045 -2.32729
LeftUpLeg  2.09349 0.81093 2.058
LeftLeg  -6.48501 25.9086 -3.10424
LeftFoot  0.9306 0.34609 -3.27158
LeftToes  4.76812e-008 1.47286e-008 1.3089e-009
10
root  -3.72669 40.9911 1.19628 -177.852 -77.5442 -178.031
RightUpLeg  -2.94918 0.313116 -1.54892
RightLeg  -1.87201 -7.18517 -0.233705
RightFoot  2.37546 -0.403993 3.49207
RightToes  -3.13588e-008 1.75238e-005 3.56266e-009
Spine  3.04849 -4.21777 -7.3821
Spine1  -6.49722 -5.56805 11.5116
HEad  -10.8694 10.1265 0.16284
LeftShoulder1  1.81273 -2.653 -23.1708
LeftArm  -33.6112 -19.8914 -52.9042
LeftForeArm  38.0757 -63.9526 -19.4125
LeftHand  -0.519388 -1.55159 8.85384
RightShoulder  1.68108 2.49655 21.7871
RightArm  -16.2838 -8.94106 49.7564
RightForeArm  46.2195 75.9163 45.0263
RightHand  -0.212487 6.74176 -2.36973
LeftUpLeg  2.56269 0.936268 1.82464
LeftLeg  -6.3033 28.2239 -3.31778
LeftFoot  0.527341 0.316625 -3.07816
LeftToes  4.76812e-008 1.47286e-008 1.3089e-009
11
root  -3.70367 40.9709 1.35062 -177.95 -74.11 -178.198
RightUpLeg  -3.43835 0.574749 -1.56466
RightLeg  -1.43505 -4.12195 -0.582318
RightFoot  2.54523 -0.439283 3.74733
RightToes  -3.13588e-008 1.75238e-005 3.56266e-009
Spine  3.4674 -5.10274 -8.22906
Spine1  -6.42936 -6.61929 12.5868
HEad  -10.3026 12.1138 0.361141
LeftShoulder1  1.93923 -3.09003 -23.1416
LeftArm  -31.3889 -21.1579 -53.4556
LeftForeArm  37.6833 -63.2601 -18.781
LeftHand  -0.538984 -1.57357 9.15685
RightShoulder  1.68696 2.52369 21.7561
RightArm  -17.1435 -8.29856 48.6896
RightForeArm  44.8426 75.9841 45.9468
RightHand  -0.304202 6.96679 -3.20337
LeftUpLeg  3.05568 1.19058 1.59908
LeftLeg  -6.18286 31.2293 -3.76585
LeftFoot  -0.00631154 0.30692 -3.09225
LeftToes  4.76812e-008 1.47286e-008 1.3089e-009
12
root  -3.73407 40.9433 1.51814 -178.841 -70.0828 -177.542
RightUpLeg  -3.77691 1.16221 -1.26565
RightLeg  -1.32314 -0.781652 -0.952832
RightFoot  2.84501 -0.488574 4.08059
RightToes  -3.13588e-008 1.75238e-005 3.56266e-009
Spine  3.45691 -5.99022 -8.16164
Spine1  -5.9047 -7.60658 12.7155
HEad  -10.2207 12.6142 0.491394
LeftShoulder1  2.03095 -3.43944 -22.9736
LeftArm  -29.4647 -22.6391 -54.46
LeftForeArm  37.6612 -62.6583 -18.2207
LeftHand  -0.524755 -1.39917 9.1348
RightShoulder  1.61306 2.26857 21.7139
RightArm  -18.2965 -7.53705 47.6972
RightForeArm  44.9073 75.8743 45.2707
RightHand  -0.197855 6.8413 -2.22758
LeftUpLeg  3.60686 1.56167 1.51798
LeftLeg  -5.92017 34.7702 -4.06577
LeftFoot  -0.635101 0.289467 -3.04984
LeftToes  4.76812e-008 1.47286e-008 1.3089e-009
13
root  -3.78307 40.9086 1.68894 -179.435 -65.7536 -177.135
RightUpLeg  -4.19577 1.61177 -1.00188
RightLeg  -1.19046 2.96359 -1.17235
RightFoot  3.09775 -0.533355 4.37423
RightToes  -3.13588e-008 1.75238e-005 3.56266e-009
Spine  3.88932 -6.98231 -8.47627
Spine1  -5.90067 -8.74931 13.534
HEad  -9.71552 12.0619 0.162892
LeftShoulder1  2.07421 -3.5257 -23.2394
LeftArm  -27.8285 -23.8012 -55.3183
LeftForeArm  37.6921 -62.3978 -17.9844
LeftHand  -0.551546 -1.71844 9.18618
RightShoulder  1.57066 2.16121 21.4778
RightArm  -18.9291 -6.83426 46.6097
RightForeArm  44.3417 75.8232 45.1842
RightHand  -0.280786 6.74783 -3.02832
LeftUpLeg  4.1574 1.78533 1.28443
LeftLeg  -5.76851 38.7865 -4.27375
LeftFoot  -1.20613 0.278122 -3.05387
LeftToes  4.76812e-008 1.47286e-008 1.3089e-009
14
root  -3.85234 40.8709 1.83844 -179.64 -61.2156 -176.99
RightUpLeg  -4.69432 2.19731 -0.67867
RightLeg  -1.18428 6.73789 -1.52117
RightFoot  3.35809 -0.594976 4.78811
RightToes  -3.13588e-008 1.75238e-005 3.56266e-009
Spine  4.01781 -7.96402 -8.92821
Spine1  -5.72071 -9.87662 14.3378
HEad  -8.76344 9.57452 0.191144
LeftShoulder1  2.30334 -4.19273 -23.6935
LeftArm  -26.5203 -24.744 -55.4959
LeftForeArm  37.1178 -62.1631 -17.8423
LeftHand  -0.541394 -1.49061 9.29936
RightShoulder  1.52614 2.07627 21.0879
RightArm  -19.4895 -6.41949 45.7313
RightForeArm  43.761 75.7942 45.2352
RightHand  -0.329334 6.6864 -3.50481
LeftUpLeg  4.61549 2.01723 0.983505
LeftLeg  -5.78142 42.9737 -4.65066
LeftFoot  -1.70256 0.251964 -2.86676
LeftToes  4.76812e-008 1.47286e-008 1.3089e-009
15
root  -3.93267 40.828 1.96985 -179.785 -56.5971 -177.01
RightUpLeg  -5.24385 2.78936 -0.35908
RightLeg  -0.80672 10.6168 -1.85252
RightFoot  3.43169 -0.654058 5.22165
RightToes  -3.13588e-008 1.75238e-005 3.56266e-009
Spine  4.24619 -9.13457 -9.61768
Spine1  -5.48072 -11.243 15.3393
HEad  -8.28348 6.24089 -0.597359
LeftShoulder1  2.48901 -4.6975 -24.1312
LeftArm  -25.6809 -25.3064 -55.3782
LeftForeArm  36.7881 -61.9813 -17.7236
LeftHand  -0.569612 -1.63653 9.58529
RightShoulder  1.55303 2.26717 20.5806
RightArm  -19.9664 -5.69367 44.7828
RightForeArm  42.9164 75.5258 44.0406
RightHand  -0.194156 6.71404 -2.20742
LeftUpLeg  5.18085 2.1678 0.546327
LeftLeg  -5.92697 47.3484 -5.04841
LeftFoot  -2.12128 0.23757 -2.78921
LeftToes  4.76812e-008 1.47286e-008 1.3089e-009
